<?xml version="1.0" standalone="no"?>
<!DOCTYPE svg PUBLIC "-//W3C//DTD SVG 20010904//EN"
 "http://www.w3.org/TR/2001/REC-SVG-20010904/DTD/svg10.dtd">
<svg version="1.0" xmlns="http://www.w3.org/2000/svg"
 width="122.000000pt" height="122.000000pt" viewBox="0 0 122.000000 122.000000"
 preserveAspectRatio="xMidYMid meet">
<metadata>
Created by potrace 1.14, written by Peter Selinger 2001-2017
</metadata>
<g transform="translate(0.000000,122.000000) scale(0.100000,-0.100000)"
fill="#000000" stroke="none">
<path d="M607 1213 c-3 -7 -2 -208 2 -238 1 -9 176 -13 212 -6 3 0 6 57 6 126
l-1 125 -107 0 c-59 0 -110 -3 -112 -7z"/>
<path d="M272 808 l3 -113 90 0 c50 0 99 2 109 6 20 6 21 19 16 202 0 15 -12
17 -110 17 l-111 0 3 -112z"/>
<path d="M609 742 c-1 -9 -2 -102 -3 -207 -1 -169 -3 -194 -21 -229 -27 -54
-64 -78 -122 -81 -60 -3 -123 15 -174 51 -23 16 -43 23 -48 18 -4 -5 -27 -34
-52 -64 -24 -30 -52 -64 -61 -74 -21 -24 -15 -33 52 -76 110 -71 252 -95 375
-65 132 33 220 127 259 276 8 33 12 120 12 257 l-1 207 -107 2 c-95 1 -108 0
-109 -15z"/>
<path d="M869 173 c-38 -9 -51 -91 -19 -123 25 -25 52 -26 73 -2 17 19 23 78
9 98 -11 17 -45 31 -63 27z m42 -46 c7 -15 7 -31 0 -50 -13 -33 -26 -34 -46
-3 -12 18 -13 30 -6 50 13 32 38 34 52 3z"/>
<path d="M963 101 c1 -90 23 -86 24 4 1 48 -2 65 -12 65 -10 0 -13 -18 -12
-69z"/>
<path d="M1013 101 c-1 -52 2 -69 11 -65 8 3 11 21 10 50 -3 52 0 51 30 -7 34
-67 46 -62 46 20 0 41 -4 71 -10 71 -10 0 -13 -17 -11 -60 2 -24 1 -23 -18 8
-12 18 -21 37 -21 42 0 6 -8 10 -18 10 -15 0 -18 -10 -19 -69z"/>
</g>
</svg>
